<?xml version="1.0" encoding="utf-8"?>
<svg width="64px" height="64px" viewBox="0 0 64 64" version="1.1" xmlns:xlink="http://www.w3.org/1999/xlink" xmlns="http://www.w3.org/2000/svg">
  <path d="M7.999 0L56.001 0Q56.1974 0 56.3935 0.00963514Q56.5896 0.0192703 56.785 0.0385174Q56.9805 0.0577644 57.1747 0.0865771Q57.3689 0.11539 57.5615 0.153699Q57.7541 0.192007 57.9446 0.23972Q58.1351 0.287433 58.323 0.344434Q58.5109 0.401436 58.6958 0.467589Q58.8807 0.533742 59.0621 0.608888Q59.2435 0.684033 59.421 0.76799Q59.5985 0.851946 59.7717 0.944512Q59.9449 1.03708 60.1133 1.13803Q60.2817 1.23898 60.445 1.34807Q60.6083 1.45717 60.766 1.57414Q60.9237 1.69112 61.0755 1.81569Q61.2273 1.94026 61.3728 2.07213Q61.5183 2.204 61.6571 2.34285Q61.796 2.4817 61.9279 2.6272Q62.0597 2.7727 62.1843 2.92449Q62.3089 3.07628 62.4258 3.234Q62.5428 3.39172 62.6519 3.55499Q62.761 3.71826 62.862 3.88669Q62.9629 4.05512 63.0555 4.2283Q63.148 4.40148 63.232 4.57899Q63.316 4.7565 63.3911 4.93791Q63.4663 5.11933 63.5324 5.30422Q63.5986 5.4891 63.6556 5.67701Q63.7126 5.86492 63.7603 6.0554Q63.808 6.24588 63.8463 6.43847Q63.8846 6.63106 63.9134 6.8253Q63.9422 7.01954 63.9615 7.21496Q63.9807 7.41038 63.9904 7.60651Q64 7.80264 64 7.999L64 56.001Q64 56.1974 63.9904 56.3935Q63.9807 56.5896 63.9615 56.785Q63.9422 56.9805 63.9134 57.1747Q63.8846 57.3689 63.8463 57.5615Q63.808 57.7541 63.7603 57.9446Q63.7126 58.1351 63.6556 58.323Q63.5986 58.5109 63.5324 58.6958Q63.4663 58.8807 63.3911 59.0621Q63.316 59.2435 63.232 59.421Q63.148 59.5985 63.0555 59.7717Q62.9629 59.9449 62.862 60.1133Q62.761 60.2817 62.6519 60.445Q62.5428 60.6083 62.4258 60.766Q62.3089 60.9237 62.1843 61.0755Q62.0597 61.2273 61.9279 61.3728Q61.796 61.5183 61.6571 61.6571Q61.5183 61.796 61.3728 61.9279Q61.2273 62.0597 61.0755 62.1843Q60.9237 62.3089 60.766 62.4258Q60.6083 62.5428 60.445 62.6519Q60.2817 62.761 60.1133 62.862Q59.9449 62.9629 59.7717 63.0555Q59.5985 63.148 59.421 63.232Q59.2435 63.316 59.0621 63.3911Q58.8807 63.4663 58.6958 63.5324Q58.5109 63.5986 58.323 63.6556Q58.1351 63.7126 57.9446 63.7603Q57.7541 63.808 57.5615 63.8463Q57.3689 63.8846 57.1747 63.9134Q56.9805 63.9422 56.785 63.9615Q56.5896 63.9807 56.3935 63.9904Q56.1974 64 56.001 64L7.999 64Q7.80264 64 7.60651 63.9904Q7.41038 63.9807 7.21496 63.9615Q7.01954 63.9422 6.8253 63.9134Q6.63106 63.8846 6.43847 63.8463Q6.24588 63.808 6.0554 63.7603Q5.86492 63.7126 5.67701 63.6556Q5.4891 63.5986 5.30422 63.5324Q5.11933 63.4663 4.93791 63.3911Q4.7565 63.316 4.57899 63.232Q4.40148 63.148 4.2283 63.0555Q4.05512 62.9629 3.88669 62.862Q3.71826 62.761 3.55499 62.6519Q3.39172 62.5428 3.234 62.4258Q3.07628 62.3089 2.92449 62.1843Q2.7727 62.0597 2.6272 61.9279Q2.4817 61.796 2.34285 61.6571Q2.204 61.5183 2.07213 61.3728Q1.94026 61.2273 1.81569 61.0755Q1.69112 60.9237 1.57414 60.766Q1.45717 60.6083 1.34807 60.445Q1.23898 60.2817 1.13803 60.1133Q1.03708 59.9449 0.944512 59.7717Q0.851946 59.5985 0.76799 59.421Q0.684033 59.2435 0.608888 59.0621Q0.533742 58.8807 0.467589 58.6958Q0.401436 58.5109 0.344434 58.323Q0.287433 58.1351 0.23972 57.9446Q0.192007 57.7541 0.153699 57.5615Q0.11539 57.3689 0.0865771 57.1747Q0.0577644 56.9805 0.0385174 56.785Q0.0192703 56.5896 0.00963514 56.3935Q0 56.1974 0 56.001L0 7.999Q0 7.80264 0.00963514 7.60651Q0.0192703 7.41038 0.0385174 7.21496Q0.0577644 7.01954 0.0865771 6.8253Q0.11539 6.63106 0.153699 6.43847Q0.192007 6.24588 0.23972 6.0554Q0.287433 5.86492 0.344434 5.67701Q0.401436 5.4891 0.467589 5.30422Q0.533742 5.11933 0.608888 4.93791Q0.684033 4.7565 0.76799 4.57899Q0.851946 4.40148 0.944512 4.2283Q1.03708 4.05512 1.13803 3.88669Q1.23898 3.71826 1.34807 3.55499Q1.45717 3.39172 1.57414 3.234Q1.69112 3.07628 1.81569 2.92449Q1.94026 2.7727 2.07213 2.6272Q2.204 2.4817 2.34285 2.34285Q2.4817 2.204 2.6272 2.07213Q2.7727 1.94026 2.92449 1.81569Q3.07628 1.69112 3.234 1.57414Q3.39172 1.45717 3.55499 1.34807Q3.71826 1.23898 3.88669 1.13803Q4.05512 1.03708 4.2283 0.944512Q4.40148 0.851946 4.57899 0.76799Q4.7565 0.684033 4.93791 0.608888Q5.11933 0.533742 5.30422 0.467589Q5.4891 0.401436 5.67701 0.344434Q5.86492 0.287433 6.0554 0.23972Q6.24588 0.192007 6.43847 0.153699Q6.63106 0.11539 6.8253 0.0865771Q7.01954 0.0577644 7.21496 0.0385174Q7.41038 0.0192703 7.60651 0.00963514Q7.80264 0 7.999 0L7.999 0Z" id="Rectangle" fill="none" fill-rule="evenodd" stroke="none" />
  <path d="M0 0L32 0L32 32L0 32L0 0Z" transform="translate(32 32)" id="Rectangle-5" fill="#8860BF" fill-rule="evenodd" stroke="none" />
  <path d="M0 0L32 0L32 32L0 32L0 0Z" transform="translate(0 32)" id="Rectangle-4" fill="#60BF88" fill-rule="evenodd" stroke="none" />
  <path d="M0 0L32 0L32 32L0 32L0 0Z" transform="translate(32 0)" id="Rectangle-3" fill="#BF6060" fill-rule="evenodd" stroke="none" />
  <g id="Group" transform="translate(0 1.5258789E-05)">
    <path d="M0 0L32 0L32 32L0 32L0 0Z" id="Rectangle-2" fill="#BFBFBF" fill-rule="evenodd" stroke="none" />
  </g>
  <path d="M0 1L64 1" transform="translate(0 31)" id="Line-2" fill="none" fill-rule="evenodd" stroke="none" />
  <path d="M1 0L1 64" transform="translate(31 0)" id="Line" fill="none" fill-rule="evenodd" stroke="none" />
  <g id="W" fill="#4D4D4D" style="mix-blend-mode: luminosity;" transform="translate(37 3)">
    <path d="M18.792 25.1035L12.672 25.1035L10.836 7.24751L8.82 25.1035L2.592 25.1035L-0.108 0.155516L5.4 0.155516L6.264 20.0635L8.316 3.03551L13.428 3.03551L15.336 20.0635L16.56 0.155516L21.708 0.155516L18.792 25.1035Z" />
  </g>
  <g id="C" fill="#4D4D4D" style="mix-blend-mode: luminosity;" transform="translate(5 35)">
    <path d="M12.888 0.00751495Q15.48 0.00751686 17.352 0.691515Q19.224 1.37552 20.88 2.74351L18 6.23551Q15.732 4.39952 13.032 4.39951Q10.476 4.39952 8.91 6.55951Q7.344 8.71951 7.344 13.0755Q7.344 17.4315 8.892 19.5375Q10.44 21.6435 13.14 21.6435Q14.796 21.6435 15.984 21.0675Q17.172 20.4915 18.54 19.4115L21.204 22.8315Q17.892 26.2155 12.816 26.2155Q9.396 26.2155 6.786 24.7035Q4.176 23.1915 2.7 20.2215Q1.224 17.2515 1.224 13.0755Q1.224 9.00751 2.736 6.05551Q4.248 3.10352 6.912 1.55551Q9.576 0.00751686 12.888 0.00751495Z" />
  </g>
  <g id="F" fill="#4D4D4D" style="mix-blend-mode: luminosity;" transform="translate(36 35)">
    <path d="M9.828 10.9555L18.54 10.9555L18.54 15.2035L9.828 15.2035L9.828 25.1035L3.888 25.1035L3.888 0.155516L20.268 0.155516L19.692 4.36751L9.828 4.36751L9.828 10.9555Z" />
  </g>
  <g id="" fill="#4D4D4D" transform="translate(6 3)">
    <path d="M19.116 11.7475L19.116 15.8515L5.076 24.5635L2.52 20.6755L14.184 13.7995L2.52 7.13951L5.04 3.03551L19.116 11.7475Z" />
  </g>
</svg>