<?xml version="1.0" encoding="utf-8"?>
<svg width="1950px" height="446px" viewBox="0 0 1950 446" version="1.1" xmlns:xlink="http://www.w3.org/1999/xlink" xmlns="http://www.w3.org/2000/svg">
  <defs>
    <filter filterUnits="userSpaceOnUse" color-interpolation-filters="sRGB" id="filter_1">
      <feFlood flood-opacity="0" result="BackgroundImageFix" />
      <feColorMatrix in="SourceAlpha" type="matrix" values="0 0 0 0 0 0 0 0 0 0 0 0 0 0 0 0 0 0 127 0" />
      <feOffset dx="10" dy="10" />
      <feGaussianBlur stdDeviation="10" />
      <feColorMatrix type="matrix" values="0 0 0 0 0.39215687 0 0 0 0 0.39215687 0 0 0 0 0.39215687 0 0 0 0.49803922 0" />
      <feBlend mode="normal" in2="BackgroundImageFix" result="effect0_dropShadow" />
      <feBlend mode="normal" in="SourceGraphic" in2="effect0_dropShadow" result="shape" />
    </filter>
  </defs>
  <g id="WearCode" transform="translate(90 48)">
    <g id="" fill="#737373" filter="url(#filter_1)">
      <path d="M169.92 166.16L169.92 202.64L45.12 280.08L22.4 245.52L126.08 184.4L22.4 125.2L44.8 88.72L169.92 166.16Z" />
    </g>
    <g id="Wear" fill="#737373" filter="url(#filter_1)">
      <path d="M300.576 284.88L333.408 284.88L363.36 86.448L340.32 86.448L316.704 257.52L293.952 109.488L263.424 109.488L239.52 257.52L218.496 86.448L193.44 86.448L221.088 284.88L254.784 284.88L277.824 135.12L300.576 284.88ZM426 255.216Q413.76 242.544 412.896 217.488L514.848 217.488Q515.424 211.152 515.424 204.528Q515.424 169.968 498.864 149.952Q482.304 129.936 453.504 129.936Q433.632 129.936 418.656 140.16Q403.68 150.384 395.616 168.384Q387.552 186.384 387.552 209.136Q387.552 245.136 405.84 266.592Q424.128 288.048 456.96 288.048Q470.784 288.048 484.464 283.44Q498.144 278.832 508.8 270.48L497.568 254.352Q486.912 261.264 477.552 264.576Q468.192 267.888 456.96 267.888Q438.24 267.888 426 255.216ZM675.264 251.76Q675.264 260.688 678.144 264.864Q681.024 269.04 687.648 271.056L681.6 288.336Q659.424 285.456 653.952 266.736Q645.888 277.104 633.648 282.576Q621.408 288.048 606.432 288.048Q583.68 288.048 570.576 275.376Q557.472 262.704 557.472 241.392Q557.472 218.064 575.76 205.392Q594.048 192.72 628.32 192.72L650.784 192.72L650.784 180.336Q650.784 164.208 641.568 157.152Q632.352 150.096 614.784 150.096Q597.504 150.096 575.328 157.872L568.704 139.44Q595.488 129.936 618.528 129.936Q646.176 129.936 660.72 142.896Q675.264 155.856 675.264 178.896L675.264 251.76ZM863.04 133.104Q850.944 129.936 841.728 129.936Q822.144 129.936 809.328 139.728Q796.512 149.52 787.296 169.104L782.688 133.104L740.64 133.104L740.64 151.824L764.544 151.824L764.544 266.16L740.64 266.16L740.64 284.88L819.552 284.88L819.552 266.16L788.736 266.16L788.736 202.224Q803.424 152.112 838.56 152.112L840 152.112L840 184.656L859.584 184.656L863.04 133.104ZM425.28 162.336Q436.224 149.808 453.792 149.808Q471.36 149.808 481.44 162.48Q491.52 175.152 491.808 199.056L412.896 199.056Q414.336 174.864 425.28 162.336ZM612.48 269.904Q623.712 269.904 633.936 264.144Q644.16 258.384 650.784 248.304L650.784 209.424L628.896 209.424Q604.704 209.424 594.048 217.488Q583.392 225.552 583.392 241.104Q583.392 269.904 612.48 269.904Z" />
    </g>
    <g id="C" fill="#BF6060" filter="url(#filter_1)">
      <path d="M986.304 80.112Q1007.04 80.112 1022.02 85.584Q1036.99 91.056 1050.24 102L1027.2 129.936Q1009.06 115.248 987.456 115.248Q967.008 115.248 954.48 132.528Q941.952 149.808 941.952 184.656Q941.952 219.504 954.336 236.352Q966.72 253.2 988.32 253.2Q1001.57 253.2 1011.07 248.592Q1020.58 243.984 1031.52 235.344L1052.83 262.704Q1026.34 289.776 985.728 289.776Q958.368 289.776 937.488 277.68Q916.608 265.584 904.8 241.824Q892.992 218.064 892.992 184.656Q892.992 152.112 905.088 128.496Q917.184 104.88 938.496 92.496Q959.808 80.112 986.304 80.112Z" />
    </g>
    <g id="o" fill="#60BF88" filter="url(#filter_1)">
      <path d="M1142.4 126.768Q1177.25 126.768 1196.98 148.8Q1216.7 170.832 1216.7 207.984Q1216.7 246.576 1197.12 268.176Q1177.54 289.776 1142.4 289.776Q1107.26 289.776 1087.68 268.32Q1068.1 246.864 1068.1 208.272Q1068.1 183.792 1076.88 165.504Q1085.66 147.216 1102.51 136.992Q1119.36 126.768 1142.4 126.768ZM1142.4 160.464Q1128.29 160.464 1121.66 171.84Q1115.04 183.216 1115.04 208.272Q1115.04 233.616 1121.66 244.992Q1128.29 256.368 1142.4 256.368Q1156.51 256.368 1163.14 244.848Q1169.76 233.328 1169.76 207.984Q1169.76 183.216 1163.14 171.84Q1156.51 160.464 1142.4 160.464Z" />
    </g>
    <g id="d" fill="#8860BF" filter="url(#filter_1)">
      <path d="M1381.44 71.184L1381.44 284.88L1341.12 284.88L1338.82 268.176Q1331.9 277.968 1321.25 283.872Q1310.59 289.776 1296.48 289.776Q1268.83 289.776 1254.58 267.888Q1240.32 246 1240.32 207.984Q1240.32 184.368 1247.81 165.936Q1255.3 147.504 1269.12 137.136Q1282.94 126.768 1301.38 126.768Q1322.11 126.768 1335.94 141.168L1335.94 66.288L1381.44 71.184ZM1313.47 160.176Q1301.09 160.176 1294.18 171.84Q1287.26 183.504 1287.26 208.272Q1287.26 234.768 1293.46 245.568Q1299.65 256.368 1310.88 256.368Q1325.28 256.368 1335.94 238.8L1335.94 172.848Q1331.04 166.512 1325.71 163.344Q1320.38 160.176 1313.47 160.176Z" />
    </g>
    <g id="e" fill="#BFBFBF" filter="url(#filter_1)">
      <path d="M1461.22 221.808Q1465.54 256.656 1498.08 256.656Q1517.66 256.656 1537.25 243.984L1555.39 268.752Q1544.16 278.544 1528.61 284.16Q1513.06 289.776 1494.34 289.776Q1468.7 289.776 1450.85 279.552Q1432.99 269.328 1423.92 251.04Q1414.85 232.752 1414.85 208.56Q1414.85 185.52 1423.63 166.944Q1432.42 148.368 1449.26 137.568Q1466.11 126.768 1489.44 126.768Q1511.33 126.768 1527.46 136.128Q1543.58 145.488 1552.37 163.2Q1561.15 180.912 1561.15 205.392Q1561.15 214.896 1560.29 221.808L1461.22 221.808ZM1489.44 157.296Q1477.06 157.296 1469.57 166.368Q1462.08 175.44 1460.64 194.16L1516.8 194.16Q1516.22 157.296 1489.44 157.296Z" />
    </g>
  </g>
  <path d="M0 0L1870 0L1870 348L0 348L0 0Z" transform="translate(30 48)" id="Rectangle" fill="none" fill-rule="evenodd" stroke="#CCCCCC" stroke-width="20" stroke-linecap="round" stroke-linejoin="round" filter="url(#filter_1)" />
  <g id="_" fill="#737373" filter="url(#filter_1)" transform="translate(1667 20)">
    <path d="M14.4 291.684L158.4 291.684L158.4 327.396L14.4 327.396L14.4 291.684Z" />
  </g>
</svg>